<?xml version="1.0" encoding="UTF-8"?>
<!DOCTYPE svg  PUBLIC '-//W3C//DTD SVG 1.1//EN'  'http://www.w3.org/Graphics/SVG/1.1/DTD/svg11.dtd'>
<svg enable-background="new 0 0 512 512" version="1.1" viewBox="0 0 512 512" xml:space="preserve" xmlns="http://www.w3.org/2000/svg">
	<path d="m256 32c123.5 0 224 100.5 224 224s-100.5 224-224 224-224-100.5-224-224 100.5-224 224-224m0-32c-141.38 0-256 114.62-256 256s114.62 256 256 256 256-114.62 256-256-114.62-256-256-256zm142.72 341.59l-1.438-4.375c-3.375-10.062-14.5-20.562-24.75-23.375l-37.843-10.344c-10.25-2.781-24.875 0.969-32.405 8.5l-13.688 13.688c-49.75-13.469-88.781-52.5-102.22-102.25l13.688-13.688c7.5-7.5 11.25-22.125 8.469-32.406l-10.314-37.844c-2.781-10.25-13.344-21.375-23.406-24.75l-4.313-1.438c-10.094-3.375-24.5 0.031-32 7.563l-20.5 20.5c-3.656 3.625-6 14.031-6 14.063-0.688 65.063 24.813 127.72 70.813 173.75 45.875 45.875 108.31 71.345 173.16 70.781 0.344 0 11.063-2.281 14.719-5.938l20.5-20.5c7.5-7.469 10.874-21.875 7.531-31.937z" fill="#fff"/>
</svg>
